<svg width="152" height="152" viewBox="0 0 152 152" fill="none" xmlns="http://www.w3.org/2000/svg">
<g clip-path="url(#clip0_10_10310)">
<g clip-path="url(#clip1_10_10310)">
<path d="M136.09 75.8905C136.09 92.454 129.391 107.467 118.53 118.321C112.394 124.453 104.989 129.246 96.7379 132.277L108.515 119.942L109.15 119.238C119.447 106.128 119.306 87.9431 108.656 75.0447L75.7216 39.4508L68.5281 46.0762C64.6492 49.6708 64.3671 55.8029 68.0344 59.6794L93.8464 87.5202C98.3599 93.2293 98.501 101.123 94.1285 106.974L66.4124 135.942H17.8392C16.8554 135.942 16.0579 135.145 16.0579 134.161V17.6907C16.0579 16.707 16.8554 15.9095 17.8392 15.9095H58.9368L43.633 31.9091L42.9983 32.614C32.7017 45.7943 32.9133 63.9084 43.4919 76.8068L76.4973 112.401L83.6203 105.775C87.4992 102.181 87.7813 96.0487 84.114 92.1721L58.3021 64.3313C53.7885 58.6222 53.6474 50.7281 58.02 44.878L85.0308 16.5438C113.946 20.9138 136.02 45.7943 136.02 75.82L136.09 75.8905Z" fill="url(#paint0_linear_10_10310)"/>
</g>
</g>
<defs>
<linearGradient id="paint0_linear_10_10310" x1="76.0742" y1="15.9095" x2="76.0742" y2="135.942" gradientUnits="userSpaceOnUse">
<stop stop-color="white"/>
<stop offset="1" stop-color="white" stop-opacity="0.6"/>
</linearGradient>
<clipPath id="clip0_10_10310">
<rect width="152" height="152" fill="white"/>
</clipPath>
<clipPath id="clip1_10_10310">
<rect width="135.227" height="135.227" fill="white" transform="translate(8.46094 8.3125)"/>
</clipPath>
</defs>
</svg>
