<svg width="590" height="178" viewBox="0 0 590 178" fill="none" xmlns="http://www.w3.org/2000/svg">
  <defs>
    <!-- Glassy white sheen for the wordmark: bright at top, fading down -->
    <linearGradient id="glassWhite" x1="0" y1="0" x2="0.35" y2="1">
      <stop offset="0" stop-color="#ffffff" stop-opacity="0.95"/>
      <stop offset="0.45" stop-color="#ffffff" stop-opacity="0.7"/>
      <stop offset="1" stop-color="#ffffff" stop-opacity="0.45"/>
    </linearGradient>
    <!-- Glassy coral for the mark: light refraction top-left, deeper bottom-right -->
    <linearGradient id="glassCoral" x1="10" y1="10" x2="168" y2="168" gradientUnits="userSpaceOnUse">
      <stop offset="0" stop-color="#ffb8a3" stop-opacity="0.95"/>
      <stop offset="0.4" stop-color="#f86941" stop-opacity="0.85"/>
      <stop offset="1" stop-color="#e2552f" stop-opacity="0.8"/>
    </linearGradient>
    <!-- Specular streak overlay -->
    <linearGradient id="specular" x1="0" y1="0" x2="0" y2="1">
      <stop offset="0" stop-color="#ffffff" stop-opacity="0.6"/>
      <stop offset="0.3" stop-color="#ffffff" stop-opacity="0"/>
    </linearGradient>
  </defs>

  <!-- Coral mark: glass fill + bright rim -->
  <path d="M168 88.9536C168 110.756 159.181 130.518 144.885 144.806C136.808 152.877 127.061 159.186 116.2 163.176L131.703 146.94L132.538 146.012C146.092 128.755 145.906 104.819 131.888 87.8403L88.5358 40.9877L79.067 49.7087C73.9612 54.4404 73.5899 62.512 78.4172 67.6148L112.394 104.262C118.335 111.777 118.521 122.168 112.765 129.868L76.282 168H22C15.3726 168 10 162.627 10 156V22C10 15.3726 15.3726 10 22 10H66.4418L46.2973 31.0605L45.4618 31.9883C31.9083 49.3376 32.1868 73.1814 46.1116 90.1597L89.557 137.012L98.933 128.291C104.039 123.56 104.41 115.488 99.5828 110.385L65.6063 73.7381C59.6651 66.2231 59.4794 55.8321 65.235 48.1315L100.79 10.835C138.851 16.5872 167.907 49.3376 167.907 88.8608L168 88.9536Z" fill="url(#glassCoral)" stroke="#ffffff" stroke-opacity="0.45" stroke-width="1.2"/>

  <!-- Wordmark glyphs: glass white -->
  <g fill="url(#glassWhite)" stroke="#ffffff" stroke-opacity="0.4" stroke-width="0.6">
    <path d="M204.359 41.3706V100.582C204.359 107.069 206.064 112.049 209.475 115.522C212.886 118.903 217.679 120.593 223.856 120.593C230.124 120.593 234.964 118.903 238.375 115.522C241.785 112.049 243.491 107.069 243.491 100.582V41.3706H262.988V100.445C262.988 108.577 261.19 115.476 257.595 121.141C254.092 126.715 249.344 130.918 243.352 133.751C237.453 136.584 230.862 138 223.579 138C216.389 138 209.844 136.584 203.944 133.751C198.136 130.918 193.527 126.715 190.116 121.141C186.705 115.476 185 108.577 185 100.445V41.3706H204.359Z"/>
    <path d="M339.491 137.041L318.611 104.831L299.667 137.041H277.82L308.241 88.7944L277.405 41.3706H299.667L320.547 73.4434L339.353 41.3706H361.2L330.918 89.4797L361.753 137.041H339.491Z"/>
    <path d="M385.059 138C381.556 138 378.653 136.949 376.348 134.848C374.136 132.655 373.029 129.959 373.029 126.761C373.029 123.563 374.136 120.913 376.348 118.811C378.653 116.618 381.556 115.522 385.059 115.522C388.47 115.522 391.282 116.618 393.494 118.811C395.707 120.913 396.813 123.563 396.813 126.761C396.813 129.959 395.707 132.655 393.494 134.848C391.282 136.949 388.47 138 385.059 138Z"/>
    <path d="M446.145 41.3706C456.285 41.3706 465.181 43.3352 472.832 47.2643C480.576 51.1935 486.521 56.813 490.67 64.1231C494.91 71.3417 497.03 79.7482 497.03 89.3427C497.03 98.9371 494.91 107.344 490.67 114.562C486.521 121.69 480.576 127.218 472.832 131.147C465.181 135.076 456.285 137.041 446.145 137.041H412.406V41.3706H446.145ZM445.454 120.73C455.594 120.73 463.429 117.989 468.96 112.506C474.491 107.024 477.257 99.3026 477.257 89.3427C477.257 79.3827 474.491 71.6158 468.96 66.042C463.429 60.3767 455.594 57.5441 445.454 57.5441H431.764V120.73H445.454Z"/>
    <path d="M544.846 138C538.116 138 532.032 136.858 526.593 134.573C521.247 132.289 517.006 129 513.872 124.705C510.738 120.41 509.125 115.339 509.032 109.491H529.774C530.05 113.42 531.433 116.527 533.922 118.811C536.503 121.096 540.006 122.238 544.431 122.238C548.948 122.238 552.497 121.187 555.078 119.085C557.659 116.892 558.95 114.06 558.95 110.587C558.95 107.755 558.074 105.425 556.323 103.597C554.571 101.77 552.359 100.353 549.686 99.3483C547.104 98.2517 543.509 97.0639 538.9 95.7846C532.631 93.9571 527.515 92.1753 523.551 90.4392C519.68 88.6117 516.315 85.9161 513.457 82.3524C510.692 78.6974 509.309 73.8545 509.309 67.8238C509.309 62.1585 510.738 57.2242 513.595 53.021C516.453 48.8177 520.463 45.6196 525.625 43.4266C530.788 41.1422 536.688 40 543.325 40C553.281 40 561.347 42.4214 567.523 47.2643C573.792 52.0158 577.249 58.6862 577.894 67.2755H556.599C556.415 63.986 554.986 61.2904 552.313 59.1888C549.732 56.9958 546.275 55.8993 541.942 55.8993C538.163 55.8993 535.12 56.8587 532.816 58.7776C530.603 60.6965 529.497 63.4834 529.497 67.1385C529.497 69.697 530.327 71.8443 531.986 73.5804C533.738 75.2252 535.858 76.5958 538.347 77.6923C540.928 78.6974 544.523 79.8853 549.132 81.2559C555.401 83.0834 560.517 84.9109 564.481 86.7385C568.445 88.566 571.856 91.3072 574.713 94.9622C577.571 98.6172 579 103.414 579 109.354C579 114.471 577.663 119.222 574.99 123.608C572.317 127.994 568.399 131.512 563.237 134.162C558.074 136.721 551.944 138 544.846 138Z"/>
  </g>
</svg>
